<svg
   xmlns="http://www.w3.org/2000/svg"
   version="1.1"
   viewBox="0 0 103.22301 119.19167"
   height="100%"
   width="100%"
   style="position:absolute;">
   <path
       d="m 90.384462,45.273084 c -0.1212,0.01534 -0.23952,0.04824 -0.35116,0.09785 0,0 -2.465822,1.091736 -5.484066,2.828192 -3.018243,1.736457 -6.611379,4.097675 -8.998585,6.850254 -1.193603,1.376293 -2.111759,2.870947 -2.385343,4.529241 -0.273585,1.658295 0.220386,3.446245 1.557741,4.935809 1.406734,1.566807 3.644805,2.921434 6.975652,4.095768 -0.703975,1.407757 -1.750591,2.650478 -3.098831,3.589322 -0.379516,0.266272 -0.183509,0.863049 0.279979,0.852438 L 96.33657,72.630275 c 0.437461,-0.0093 0.624793,-0.559771 0.283829,-0.833998 -4.481416,-3.627299 -8.918415,-7.219045 -13.572516,-10.986353 -0.07519,-0.06113 -0.167475,-0.09746 -0.264162,-0.103988 -0.327041,-0.02116 -0.574302,0.291216 -0.478635,0.604666 0.492643,1.624855 0.552249,3.299094 0.22962,4.878509 -3.073311,-1.097633 -4.980253,-2.262859 -5.951088,-3.344167 -0.925678,-1.031013 -1.113392,-1.878815 -0.95149,-2.860163 0.161902,-0.981348 0.795745,-2.131799 1.807624,-3.298554 2.023762,-2.333513 5.454611,-4.649253 8.356039,-6.318507 2.901431,-1.669252 5.251855,-2.711234 5.251855,-2.711234 0.630268,-0.280436 0.914204,-1.01844 0.634429,-1.649002 -0.223212,-0.504208 -0.75044,-0.802596 -1.297612,-0.734394 z"
       stroke="none"
       fill="current"/>
</svg>