<svg
   xmlns="http://www.w3.org/2000/svg"
   version="1.1"
   viewBox="0 0 103.22301 119.19167"
   height="100%"
   width="100%"
   style="position:absolute;">
   <path
        d="m 29.751422,22.10428 c 0.12974,-0.211323 0.40167,-0.284977 0.62038,-0.168127 5.13547,2.739525 10.27091,5.47913 15.40632,8.218776 0.40511,0.218075 0.28649,0.828379 -0.17083,0.878785 -1.71355,0.182023 -3.30075,0.79384 -4.64252,1.729314 8.73752,10.240958 26.51009,25.882501 53.53681,25.740803 0.69073,-0.0038 1.25357,0.553421 1.25679,1.244143 0.003,0.689907 -0.55347,1.251802 -1.24337,1.255451 -27.90171,0.146296 -46.29628,-15.95616 -55.39012,-26.573919 -1.02516,1.19782 -1.76386,2.647623 -2.1038,4.257788 -0.0958,0.455182 -0.7245,0.508043 -0.89494,0.07524 l -6.41247,-16.241472 c -0.0423,-0.108399 -0.0429,-0.228655 -10e-4,-0.337409 0.0105,-0.02764 0.0237,-0.05422 0.0393,-0.07941 z"
        stroke="none"
        fill="current"/>
</svg>