<svg
   xmlns="http://www.w3.org/2000/svg"
   version="1.1"
   viewBox="0 0 103.22301 119.19167"
   height="100%"
   width="100%"
   style="position:absolute;">
   <path
       d="m 29.749279,96.571986 c 0.129742,0.211321 0.401668,0.284976 0.620379,0.168125 5.135475,-2.739524 10.270908,-5.479128 15.406317,-8.218776 0.405118,-0.218075 0.286496,-0.828379 -0.170823,-0.878783 -1.713548,-0.182022 -3.300748,-0.79384 -4.642518,-1.729315 8.73752,-10.240958 26.510087,-25.882501 53.536803,-25.740803 0.69073,0.0038 1.25357,-0.553421 1.25679,-1.244143 0.003,-0.689907 -0.55347,-1.251802 -1.24337,-1.255451 -27.901708,-0.146296 -46.296281,15.95616 -55.39012,26.57392 -1.025153,-1.197821 -1.763862,-2.647624 -2.103793,-4.257789 -0.09578,-0.455182 -0.724503,-0.508043 -0.894942,-0.07524 l -6.412473,16.241472 c -0.04235,0.1084 -0.0429,0.228655 -0.0015,0.33741 0.01053,0.02764 0.02368,0.05422 0.03926,0.07941 z"
       stroke="none"
       fill="current"/>
</svg>