<svg
   xmlns="http://www.w3.org/2000/svg"
   version="1.1"
   viewBox="0 0 103.22301 119.19167"
   height="100%"
   width="100%"
   style="position:absolute;">
   <path
        transform="scale(0.26458334)"
        d="m 90.294922,200.24805 a 1.7718307,1.7718307 0 0 0 -0.597656,0.11133 l -61.941407,22.78124 a 1.7718307,1.7718307 0 0 0 0,3.32032 l 61.941407,22.78125 A 1.7718307,1.7718307 0 0 0 91.75,246.54688 C 88.021746,241.3523 85.769048,235.45799 84.990234,229.43555 H 348.7207 a 4.7244094,4.7244094 0 0 0 4.72461,-4.72266 4.7244094,4.7244094 0 0 0 -4.72461,-4.72461 H 84.980469 c 0.766559,-6.00203 3.010846,-11.83327 6.753906,-16.91992 a 1.7718307,1.7718307 0 0 0 -1.439453,-2.82031 z"
        stroke="none"
        fill="current"/>
</svg>