<svg
   xmlns="http://www.w3.org/2000/svg"
   version="1.1"
   viewBox="0 0 103.22301 119.19167"
   height="100%"
   width="100%"
   style="position:absolute;">
   <path
        d="M 95.889655,59.116536 A 0.46879688,0.46879688 0 0 0 95.656009,58.926823 L 79.265248,52.900685 a 0.46879688,0.46879688 0 0 0 -0.541265,0.714084 c 0.986453,1.374423 1.581993,2.934114 1.787965,4.527247 l -24.022987,-2.05e-4 a 1.25,1.25 0 0 0 -1.250232,1.249311 1.25,1.25 0 0 0 1.250534,1.251319 l 24.025035,-3.81e-4 c -0.203058,1.587239 -0.797227,3.12943 -1.787299,4.474903 a 0.46879688,0.46879688 0 0 0 0.540326,0.716767 l 16.387347,-6.026589 a 0.46879688,0.46879688 0 0 0 0.24971,-0.665098 0.46879688,0.46879688 0 0 0 -0.01472,-0.0255 z"
        stroke="none"
        fill="current"/>
</svg>