<svg
   xmlns="http://www.w3.org/2000/svg"
   version="1.1"
   viewBox="0 0 103.22301 119.19167"
   height="100%"
   width="100%"
   style="position:absolute;">
   <path
       d="m 72.915931,22.859137 c 0.0301,0.05512 0.0489,0.115688 0.0552,0.178175 0.57962,5.927829 1.197,12.233254 1.70058,17.379011 0.0486,0.463132 -0.53463,0.706192 -0.82927,0.345569 -1.09855,-1.321778 -2.48308,-2.302125 -4.00043,-2.900358 -1.1295,3.802103 -1.27963,6.934822 -0.78267,9.504933 0.87517,4.526074 3.72537,7.497308 7.3144,9.572136 7.17805,4.149657 17.08932,4.233128 17.08932,4.233128 0.44873,7.41e-4 0.86263,0.24195 1.08448,0.632004 0.10725,0.188569 0.16367,0.401767 0.1636,0.618707 -6.4e-4,0.690708 -0.56135,1.249984 -1.25206,1.248853 0,0 -10.32678,0.06221 -18.33644,-4.568214 -4.00483,-2.315204 -7.486258,-5.925787 -8.517889,-11.26103 -0.582277,-3.01133 -0.392452,-6.512187 0.807594,-10.593692 -1.561184,-0.186492 -3.173458,0.0038 -4.69817,0.61194 -0.433016,0.173816 -0.826466,-0.322791 -0.558185,-0.70458 l 9.963,-14.339147 c 0.1634,-0.235263 0.49775,-0.270227 0.70631,-0.07397 0.0362,0.03383 0.0667,0.07312 0.0906,0.116541 z"
       stroke="none"
       fill="current" />
</svg>